<svg width="652" height="152" fill="none" xmlns="http://www.w3.org/2000/svg"><path d="M233.184 96.432c-3.888 0-7.368-.84-10.44-2.52-3.024-1.68-5.4-3.984-7.128-6.912-1.728-2.976-2.592-6.336-2.592-10.08 0-3.744.864-7.08 2.592-10.008 1.728-2.976 4.104-5.28 7.128-6.912 3.072-1.68 6.552-2.52 10.44-2.52 3.456 0 6.528.696 9.216 2.088 2.736 1.392 4.848 3.408 6.336 6.048L243.48 69c-1.2-1.824-2.688-3.192-4.464-4.104-1.776-.912-3.744-1.368-5.904-1.368-2.496 0-4.752.552-6.768 1.656-1.968 1.104-3.528 2.688-4.68 4.752-1.104 2.016-1.656 4.344-1.656 6.984 0 2.688.552 5.064 1.656 7.128 1.152 2.016 2.712 3.576 4.68 4.68 2.016 1.104 4.272 1.656 6.768 1.656 2.16 0 4.128-.456 5.904-1.368 1.776-.912 3.264-2.28 4.464-4.104l5.256 3.312c-1.488 2.64-3.6 4.68-6.336 6.12-2.688 1.392-5.76 2.088-9.216 2.088zm40.282 0c-3.792 0-7.2-.84-10.224-2.52-3.024-1.68-5.4-3.984-7.128-6.912-1.68-2.976-2.52-6.336-2.52-10.08 0-3.744.84-7.08 2.52-10.008 1.728-2.976 4.104-5.28 7.128-6.912 3.024-1.68 6.432-2.52 10.224-2.52s7.176.84 10.152 2.52c3.024 1.632 5.376 3.936 7.056 6.912 1.728 2.928 2.592 6.264 2.592 10.008 0 3.744-.864 7.104-2.592 10.08-1.68 2.928-4.032 5.232-7.056 6.912-2.976 1.68-6.36 2.52-10.152 2.52zm0-6.048c2.448 0 4.632-.552 6.552-1.656a12.183 12.183 0 004.608-4.752c1.104-2.064 1.656-4.416 1.656-7.056 0-2.64-.552-4.968-1.656-6.984-1.104-2.064-2.64-3.648-4.608-4.752-1.92-1.104-4.104-1.656-6.552-1.656-2.448 0-4.656.552-6.624 1.656-1.92 1.104-3.456 2.688-4.608 4.752-1.104 2.016-1.656 4.344-1.656 6.984 0 2.64.552 4.992 1.656 7.056 1.152 2.016 2.688 3.6 4.608 4.752 1.968 1.104 4.176 1.656 6.624 1.656zm49.735-32.904c4.848 0 8.688 1.416 11.52 4.248 2.88 2.784 4.32 6.888 4.32 12.312V96h-6.912V74.832c0-3.696-.888-6.48-2.664-8.352-1.776-1.872-4.32-2.808-7.632-2.808-3.744 0-6.696 1.104-8.856 3.312-2.16 2.16-3.24 5.28-3.24 9.36V96h-6.912V57.84h6.624v5.76c1.392-1.968 3.264-3.48 5.616-4.536 2.4-1.056 5.112-1.584 8.136-1.584zm50.088 36.288c-1.008.864-2.256 1.536-3.744 2.016a16.443 16.443 0 01-4.608.648c-3.84 0-6.816-1.032-8.928-3.096-2.112-2.064-3.168-5.016-3.168-8.856V63.528h-6.48V57.84h6.48v-8.352h6.912v8.352h10.944v5.688h-10.944v20.664c0 2.064.504 3.648 1.512 4.752 1.056 1.104 2.544 1.656 4.464 1.656 2.112 0 3.912-.6 5.4-1.8l2.16 4.968zm22.253-36.288c5.28 0 9.312 1.296 12.096 3.888 2.832 2.592 4.248 6.456 4.248 11.592V96h-6.552v-5.04c-1.152 1.776-2.808 3.144-4.968 4.104-2.112.912-4.632 1.368-7.56 1.368-4.272 0-7.704-1.032-10.296-3.096-2.544-2.064-3.816-4.776-3.816-8.136 0-3.36 1.224-6.048 3.672-8.064 2.448-2.064 6.336-3.096 11.664-3.096h10.944v-1.368c0-2.976-.864-5.256-2.592-6.84-1.728-1.584-4.272-2.376-7.632-2.376-2.256 0-4.464.384-6.624 1.152-2.16.72-3.984 1.704-5.472 2.952l-2.88-5.184c1.968-1.584 4.32-2.784 7.056-3.6 2.736-.864 5.64-1.296 8.712-1.296zm-1.584 33.624c2.64 0 4.92-.576 6.84-1.728 1.92-1.2 3.312-2.88 4.176-5.04v-5.328h-10.656c-5.856 0-8.784 1.968-8.784 5.904 0 1.92.744 3.432 2.232 4.536 1.488 1.104 3.552 1.656 6.192 1.656zm47.562 5.328c-3.888 0-7.368-.84-10.44-2.52-3.024-1.68-5.4-3.984-7.128-6.912-1.728-2.976-2.592-6.336-2.592-10.08 0-3.744.864-7.08 2.592-10.008 1.728-2.976 4.104-5.28 7.128-6.912 3.072-1.68 6.552-2.52 10.44-2.52 3.456 0 6.528.696 9.216 2.088 2.736 1.392 4.848 3.408 6.336 6.048L451.816 69c-1.2-1.824-2.688-3.192-4.464-4.104-1.776-.912-3.744-1.368-5.904-1.368-2.496 0-4.752.552-6.768 1.656-1.968 1.104-3.528 2.688-4.68 4.752-1.104 2.016-1.656 4.344-1.656 6.984 0 2.688.552 5.064 1.656 7.128 1.152 2.016 2.712 3.576 4.68 4.68 2.016 1.104 4.272 1.656 6.768 1.656 2.16 0 4.128-.456 5.904-1.368 1.776-.912 3.264-2.28 4.464-4.104l5.256 3.312c-1.488 2.64-3.6 4.68-6.336 6.12-2.688 1.392-5.76 2.088-9.216 2.088zm46.449-2.664c-1.008.864-2.256 1.536-3.744 2.016a16.443 16.443 0 01-4.608.648c-3.84 0-6.816-1.032-8.928-3.096-2.112-2.064-3.168-5.016-3.168-8.856V63.528h-6.48V57.84h6.48v-8.352h6.912v8.352h10.944v5.688h-10.944v20.664c0 2.064.504 3.648 1.512 4.752 1.056 1.104 2.544 1.656 4.464 1.656 2.112 0 3.912-.6 5.4-1.8l2.16 4.968zm65.397-35.928L539.11 96h-6.624L521.47 67.056 510.31 96h-6.624l-14.184-38.16h6.552l11.088 30.384 11.52-30.384h5.832l11.304 30.528 11.376-30.528h6.192zm7.014 0h6.912V96h-6.912V57.84zm3.456-7.344c-1.344 0-2.472-.432-3.384-1.296-.864-.864-1.296-1.92-1.296-3.168 0-1.248.432-2.304 1.296-3.168.912-.912 2.04-1.368 3.384-1.368 1.344 0 2.448.432 3.312 1.296.912.816 1.368 1.848 1.368 3.096 0 1.296-.456 2.4-1.368 3.312-.864.864-1.968 1.296-3.312 1.296zm27.598 45.936c-3.12 0-6.12-.408-9-1.224-2.88-.864-5.136-1.944-6.768-3.24l2.88-5.472c1.68 1.2 3.72 2.16 6.12 2.88 2.4.72 4.824 1.08 7.272 1.08 6.048 0 9.072-1.728 9.072-5.184 0-1.152-.408-2.064-1.224-2.736-.816-.672-1.848-1.152-3.096-1.44-1.2-.336-2.928-.696-5.184-1.08-3.072-.48-5.592-1.032-7.56-1.656a11.62 11.62 0 01-4.968-3.168c-1.392-1.488-2.088-3.576-2.088-6.264 0-3.456 1.44-6.216 4.32-8.28 2.88-2.112 6.744-3.168 11.592-3.168 2.544 0 5.088.312 7.632.936 2.544.624 4.632 1.464 6.264 2.52l-2.952 5.472c-3.12-2.016-6.792-3.024-11.016-3.024-2.928 0-5.16.48-6.696 1.44-1.536.96-2.304 2.232-2.304 3.816 0 1.248.432 2.232 1.296 2.952.864.72 1.92 1.248 3.168 1.584 1.296.336 3.096.72 5.4 1.152 3.072.528 5.544 1.104 7.416 1.728 1.92.576 3.552 1.584 4.896 3.024 1.344 1.44 2.016 3.456 2.016 6.048 0 3.456-1.488 6.216-4.464 8.28-2.928 2.016-6.936 3.024-12.024 3.024zm59.614-19.296c0 .528-.048 1.224-.144 2.088h-30.96c.432 3.36 1.896 6.072 4.392 8.136 2.544 2.016 5.688 3.024 9.432 3.024 4.56 0 8.232-1.536 11.016-4.608l3.816 4.464c-1.728 2.016-3.888 3.552-6.48 4.608-2.544 1.056-5.4 1.584-8.568 1.584-4.032 0-7.608-.816-10.728-2.448-3.12-1.68-5.544-4.008-7.272-6.984-1.68-2.976-2.52-6.336-2.52-10.08 0-3.696.816-7.032 2.448-10.008 1.68-2.976 3.96-5.28 6.84-6.912 2.928-1.68 6.216-2.52 9.864-2.52 3.648 0 6.888.84 9.72 2.52 2.88 1.632 5.112 3.936 6.696 6.912 1.632 2.976 2.448 6.384 2.448 10.224zm-18.864-13.824c-3.312 0-6.096 1.008-8.352 3.024-2.208 2.016-3.504 4.656-3.888 7.92h24.48c-.384-3.216-1.704-5.832-3.96-7.848-2.208-2.064-4.968-3.096-8.28-3.096zM155.763 0H14.695C6.7 0 0 6.701 0 14.695v96.982c0 8.01 6.7 14.696 14.695 14.696h29.39v24.742l24.226-26.664 14.694-17.079a2.948 2.948 0 014.148-.301c1.235 1.046 1.363 2.913.316 4.132l-13.045 15.17h81.339c8.009 0 14.694-6.686 14.694-14.696V14.695C170.457 6.7 163.772 0 155.763 0z" fill="#175CFF"/><path d="M125.606 49.843c-1.64 0-3.28.163-4.888.488a20.163 20.163 0 00-28.24-14.335C87.41 22.025 71.97 14.813 57.998 19.885c-13.97 5.07-21.184 20.51-16.113 34.48-12.237.386-21.905 10.517-21.721 22.76.184 12.243 10.15 22.078 22.396 22.097h83.046c13.636 0 24.691-11.053 24.691-24.69 0-13.635-11.055-24.689-24.691-24.689z" fill="#fff"/><path d="M49 61.033c-1.542 0-2.796 1.024-2.796 2.285v13.715c0 1.26 1.254 2.284 2.796 2.284 1.543 0 2.796-1.023 2.796-2.284V63.318c0-1.261-1.253-2.285-2.796-2.285zM63.592 47.319c-1.544 0-2.796 1.024-2.796 2.285v41.142c0 1.261 1.252 2.285 2.796 2.285 1.543 0 2.796-1.024 2.796-2.285V49.604c0-1.261-1.253-2.285-2.796-2.285zM78.184 54.176c-1.544 0-2.796 1.024-2.796 2.285V83.89c0 1.261 1.252 2.285 2.796 2.285 1.543 0 2.796-1.024 2.796-2.285V56.461c0-1.261-1.254-2.285-2.796-2.285zM92.776 63.318c-1.544 0-2.796 1.024-2.796 2.286v9.142c0 1.262 1.252 2.286 2.796 2.286 1.542 0 2.796-1.024 2.796-2.286v-9.142c0-1.262-1.254-2.286-2.796-2.286zM107.367 54.176c-1.543 0-2.796 1.024-2.796 2.285V83.89c0 1.261 1.253 2.285 2.796 2.285 1.542 0 2.796-1.024 2.796-2.285V56.461c0-1.261-1.254-2.285-2.796-2.285zM121.958 61.033c-1.543 0-2.796 1.024-2.796 2.285v13.715c0 1.26 1.253 2.284 2.796 2.284s2.796-1.023 2.796-2.284V63.318c0-1.261-1.253-2.285-2.796-2.285z" fill="#175CFF"/></svg>